<svg xmlns="http://www.w3.org/2000/svg" width="840" height="1188" viewBox="0 0 840 1188" role="img" aria-label="ATS Clean Sample CV template thumbnail">
  <rect width="840" height="1188" fill="#f5f6f8"/>
  <rect x="70" y="56" width="700" height="1076" rx="6" fill="#ffffff"/>
  <rect x="138" y="128" width="360" height="36" rx="3" fill="#101828"/>
  <rect x="138" y="178" width="260" height="14" rx="2" fill="#344054"/>
  <rect x="138" y="226" width="564" height="5" fill="#2563eb"/>
  <g fill="#667085">
    <rect x="138" y="252" width="156" height="13" rx="2"/>
    <rect x="324" y="252" width="120" height="13" rx="2"/>
    <rect x="474" y="252" width="190" height="13" rx="2"/>
  </g>
  <g fill="#101828">
    <rect x="138" y="326" width="190" height="17" rx="2"/>
    <rect x="138" y="454" width="130" height="17" rx="2"/>
    <rect x="138" y="570" width="230" height="17" rx="2"/>
    <rect x="138" y="812" width="104" height="17" rx="2"/>
  </g>
  <g fill="#d0d5dd">
    <rect x="138" y="356" width="564" height="3"/>
    <rect x="138" y="484" width="564" height="3"/>
    <rect x="138" y="600" width="564" height="3"/>
    <rect x="138" y="842" width="564" height="3"/>
  </g>
  <g fill="#344054">
    <rect x="138" y="382" width="520" height="12" rx="2"/>
    <rect x="138" y="406" width="480" height="12" rx="2"/>
    <rect x="138" y="510" width="82" height="12" rx="2"/>
    <rect x="240" y="510" width="110" height="12" rx="2"/>
    <rect x="370" y="510" width="92" height="12" rx="2"/>
    <rect x="482" y="510" width="126" height="12" rx="2"/>
  </g>
  <g fill="#101828">
    <rect x="138" y="628" width="196" height="15" rx="2"/>
    <rect x="138" y="724" width="172" height="15" rx="2"/>
    <rect x="138" y="870" width="176" height="15" rx="2"/>
  </g>
  <g fill="#2563eb">
    <rect x="138" y="652" width="150" height="12" rx="2"/>
    <rect x="138" y="748" width="132" height="12" rx="2"/>
    <rect x="138" y="894" width="166" height="12" rx="2"/>
  </g>
  <g fill="#667085">
    <rect x="586" y="628" width="116" height="12" rx="2"/>
    <rect x="586" y="724" width="116" height="12" rx="2"/>
    <rect x="586" y="870" width="116" height="12" rx="2"/>
  </g>
  <g fill="#475467">
    <rect x="158" y="682" width="496" height="10" rx="2"/>
    <rect x="158" y="704" width="468" height="10" rx="2"/>
    <rect x="158" y="778" width="510" height="10" rx="2"/>
    <rect x="158" y="800" width="436" height="10" rx="2"/>
    <rect x="138" y="924" width="420" height="10" rx="2"/>
    <rect x="138" y="946" width="362" height="10" rx="2"/>
  </g>
</svg>
