<svg xmlns="http://www.w3.org/2000/svg" width="420" height="594" viewBox="0 0 420 594">
  <rect width="420" height="594" fill="#eef1f5"/>
  <rect x="34" y="20" width="352" height="554" fill="#fffdf8"/>
  <rect x="34" y="20" width="352" height="554" fill="none" stroke="#172033" stroke-width="14"/>
  <rect x="60" y="46" width="300" height="502" fill="none" stroke="#b8860b" stroke-opacity=".45"/>
  <line x1="92" y1="78" x2="328" y2="78" stroke="#b8860b" stroke-opacity=".55"/>
  <text x="210" y="83" text-anchor="middle" font-family="Arial" font-size="9" font-weight="700" fill="#b8860b" letter-spacing="2">CURRICULUM VITAE</text>
  <rect x="78" y="112" width="120" height="14" rx="2" fill="#172033"/>
  <rect x="78" y="135" width="92" height="10" rx="2" fill="#172033"/>
  <rect x="78" y="158" width="170" height="6" rx="3" fill="#c6ad68"/>
  <rect x="283" y="105" width="58" height="58" fill="#172033"/>
  <rect x="291" y="113" width="42" height="42" fill="#d8b45b"/>
  <line x1="78" y1="190" x2="342" y2="190" stroke="#e2d9bf"/>
  <rect x="78" y="220" width="72" height="10" rx="2" fill="#172033"/>
  <line x1="158" y1="225" x2="250" y2="225" stroke="#b8860b"/>
  <rect x="78" y="248" width="42" height="7" rx="2" fill="#b8860b"/>
  <rect x="136" y="245" width="92" height="8" rx="3" fill="#172033"/>
  <rect x="136" y="262" width="136" height="5" rx="2.5" fill="#d6d9df"/>
  <rect x="136" y="276" width="122" height="5" rx="2.5" fill="#e6e8ed"/>
  <rect x="78" y="318" width="42" height="7" rx="2" fill="#b8860b"/>
  <rect x="136" y="315" width="102" height="8" rx="3" fill="#172033"/>
  <rect x="136" y="332" width="128" height="5" rx="2.5" fill="#d6d9df"/>
  <rect x="136" y="346" width="112" height="5" rx="2.5" fill="#e6e8ed"/>
  <line x1="278" y1="214" x2="278" y2="480" stroke="#e2d9bf"/>
  <rect x="298" y="220" width="58" height="10" rx="2" fill="#172033"/>
  <line x1="298" y1="239" x2="350" y2="239" stroke="#b8860b"/>
  <rect x="298" y="260" width="64" height="6" rx="3" fill="#172033"/>
  <rect x="298" y="275" width="50" height="5" rx="2.5" fill="#d6d9df"/>
  <rect x="298" y="316" width="58" height="10" rx="2" fill="#172033"/>
  <rect x="298" y="344" width="58" height="5" rx="2.5" fill="#e7e1d3"/>
  <rect x="298" y="344" width="52" height="5" rx="2.5" fill="#b8860b"/>
  <rect x="298" y="365" width="58" height="5" rx="2.5" fill="#e7e1d3"/>
  <rect x="298" y="365" width="46" height="5" rx="2.5" fill="#b8860b"/>
  <rect x="298" y="408" width="58" height="10" rx="2" fill="#172033"/>
  <rect x="298" y="436" width="54" height="6" rx="3" fill="#d6d9df"/>
  <rect x="298" y="454" width="42" height="6" rx="3" fill="#d6d9df"/>
</svg>
