<svg xmlns="http://www.w3.org/2000/svg" width="840" height="1188" viewBox="0 0 840 1188" role="img" aria-label="Sidebar ATS CV template thumbnail">
  <rect width="840" height="1188" fill="#eef1f5"/>
  <rect x="70" y="56" width="700" height="1076" rx="6" fill="#ffffff"/>
  <rect x="70" y="56" width="226" height="1076" rx="6" fill="#f7f8fa"/>
  <rect x="295" y="56" width="1" height="1076" fill="#d9dee7"/>
  <rect x="116" y="132" width="138" height="30" rx="3" fill="#111827"/>
  <rect x="116" y="176" width="112" height="13" rx="2" fill="#2563eb"/>
  <rect x="116" y="210" width="136" height="5" fill="#2563eb"/>
  <g fill="#111827">
    <rect x="116" y="274" width="78" height="14" rx="2"/>
    <rect x="116" y="426" width="62" height="14" rx="2"/>
    <rect x="116" y="624" width="84" height="14" rx="2"/>
  </g>
  <g fill="#cfd6e2">
    <rect x="116" y="302" width="130" height="2"/>
    <rect x="116" y="454" width="130" height="2"/>
    <rect x="116" y="652" width="130" height="2"/>
  </g>
  <g fill="#6b7280">
    <rect x="116" y="326" width="42" height="8" rx="1"/>
    <rect x="116" y="352" width="48" height="8" rx="1"/>
    <rect x="116" y="378" width="62" height="8" rx="1"/>
    <rect x="116" y="676" width="48" height="8" rx="1"/>
    <rect x="116" y="714" width="52" height="8" rx="1"/>
  </g>
  <g fill="#374151">
    <rect x="116" y="338" width="120" height="10" rx="2"/>
    <rect x="116" y="364" width="108" height="10" rx="2"/>
    <rect x="116" y="390" width="116" height="10" rx="2"/>
    <rect x="116" y="688" width="82" height="10" rx="2"/>
    <rect x="116" y="726" width="94" height="10" rx="2"/>
  </g>
  <g fill="#ffffff" stroke="#d4dae5" stroke-width="1">
    <rect x="116" y="482" width="72" height="20" rx="2"/>
    <rect x="196" y="482" width="46" height="20" rx="2"/>
    <rect x="116" y="512" width="52" height="20" rx="2"/>
    <rect x="176" y="512" width="68" height="20" rx="2"/>
    <rect x="116" y="542" width="82" height="20" rx="2"/>
    <rect x="116" y="572" width="106" height="20" rx="2"/>
  </g>
  <g fill="#111827">
    <rect x="352" y="132" width="186" height="16" rx="2"/>
    <rect x="352" y="310" width="216" height="16" rx="2"/>
    <rect x="352" y="612" width="96" height="16" rx="2"/>
    <rect x="352" y="750" width="88" height="16" rx="2"/>
  </g>
  <g fill="#cfd6e2">
    <rect x="352" y="162" width="348" height="2"/>
    <rect x="352" y="340" width="348" height="2"/>
    <rect x="352" y="642" width="348" height="2"/>
    <rect x="352" y="780" width="348" height="2"/>
  </g>
  <g fill="#374151">
    <rect x="352" y="188" width="318" height="10" rx="2"/>
    <rect x="352" y="212" width="286" height="10" rx="2"/>
    <rect x="352" y="236" width="330" height="10" rx="2"/>
  </g>
  <g fill="#111827">
    <rect x="352" y="370" width="164" height="13" rx="2"/>
    <rect x="352" y="488" width="144" height="13" rx="2"/>
    <rect x="352" y="672" width="196" height="13" rx="2"/>
    <rect x="352" y="810" width="176" height="13" rx="2"/>
  </g>
  <g fill="#2563eb">
    <rect x="352" y="392" width="128" height="10" rx="2"/>
    <rect x="352" y="510" width="112" height="10" rx="2"/>
    <rect x="352" y="694" width="190" height="10" rx="2"/>
  </g>
  <g fill="#6b7280">
    <rect x="612" y="370" width="88" height="10" rx="2"/>
    <rect x="612" y="488" width="88" height="10" rx="2"/>
    <rect x="612" y="672" width="88" height="10" rx="2"/>
  </g>
  <g fill="#475467">
    <rect x="374" y="424" width="286" height="9" rx="2"/>
    <rect x="374" y="448" width="254" height="9" rx="2"/>
    <rect x="374" y="542" width="312" height="9" rx="2"/>
    <rect x="374" y="566" width="236" height="9" rx="2"/>
    <rect x="352" y="842" width="322" height="9" rx="2"/>
    <rect x="352" y="866" width="264" height="9" rx="2"/>
  </g>
</svg>
