<svg xmlns="http://www.w3.org/2000/svg" width="420" height="594" viewBox="0 0 420 594" fill="none">
  <rect width="420" height="594" rx="18" fill="#0B1020"/>
  <rect x="24" y="24" width="372" height="546" rx="12" fill="#F8FAFC"/>
  <path d="M396 24V174C396 193.882 379.882 210 360 210H210L396 24Z" fill="url(#corner)" opacity="0.22"/>
  <rect x="48" y="56" width="76" height="22" rx="6" fill="#E0F2FE"/>
  <text x="61" y="71" font-family="Inter, Arial, sans-serif" font-size="8" font-weight="800" fill="#0369A1">TECH RESUME</text>
  <rect x="48" y="98" width="190" height="18" rx="4" fill="#020617"/>
  <rect x="48" y="124" width="142" height="10" rx="3" fill="#2563EB"/>
  <rect x="48" y="150" width="230" height="7" rx="3.5" fill="#94A3B8"/>
  <rect x="48" y="165" width="205" height="7" rx="3.5" fill="#CBD5E1"/>
  <rect x="300" y="60" width="64" height="64" rx="12" fill="#E0F2FE" stroke="#BAE6FD" stroke-width="3"/>
  <circle cx="332" cy="86" r="15" fill="#94A3B8"/>
  <path d="M307 122C312 107 352 107 357 122" fill="#94A3B8"/>
  <line x1="48" y1="204" x2="364" y2="204" stroke="#DBEAFE" stroke-width="2"/>
  <g transform="translate(48 236)">
    <text x="0" y="0" font-family="Inter, Arial, sans-serif" font-size="12" font-weight="900" fill="#020617">&lt;/&gt; PROFILE</text>
    <rect y="20" width="178" height="7" rx="3.5" fill="#64748B"/>
    <rect y="36" width="210" height="7" rx="3.5" fill="#CBD5E1"/>
    <rect y="52" width="194" height="7" rx="3.5" fill="#CBD5E1"/>
  </g>
  <g transform="translate(48 334)">
    <text x="0" y="0" font-family="Inter, Arial, sans-serif" font-size="12" font-weight="900" fill="#020617">&lt;/&gt; EXPERIENCE</text>
    <rect y="20" width="206" height="76" rx="14" fill="#FFFFFF" stroke="#DBEAFE"/>
    <rect y="20" width="5" height="76" rx="3" fill="#2563EB"/>
    <rect x="18" y="36" width="118" height="8" rx="4" fill="#020617"/>
    <rect x="18" y="53" width="72" height="7" rx="3.5" fill="#2563EB"/>
    <rect x="18" y="70" width="164" height="6" rx="3" fill="#CBD5E1"/>
    <rect x="18" y="84" width="148" height="6" rx="3" fill="#CBD5E1"/>
    <rect y="112" width="206" height="76" rx="14" fill="#FFFFFF" stroke="#DBEAFE"/>
    <rect y="112" width="5" height="76" rx="3" fill="#2563EB"/>
    <rect x="18" y="128" width="132" height="8" rx="4" fill="#020617"/>
    <rect x="18" y="145" width="84" height="7" rx="3.5" fill="#2563EB"/>
    <rect x="18" y="162" width="154" height="6" rx="3" fill="#CBD5E1"/>
  </g>
  <g transform="translate(282 236)">
    <rect width="82" height="104" rx="14" fill="#FFFFFF" stroke="#E2E8F0"/>
    <text x="14" y="26" font-family="Inter, Arial, sans-serif" font-size="9" font-weight="900" fill="#020617">&lt;/&gt; STACK</text>
    <rect x="14" y="42" width="34" height="16" rx="5" fill="#E0F2FE"/>
    <rect x="52" y="42" width="18" height="16" rx="5" fill="#E0F2FE"/>
    <rect x="14" y="64" width="48" height="16" rx="5" fill="#E0F2FE"/>
    <rect x="14" y="86" width="38" height="6" rx="3" fill="#CBD5E1"/>
    <rect y="126" width="82" height="118" rx="14" fill="#FFFFFF" stroke="#E2E8F0"/>
    <text x="14" y="152" font-family="Inter, Arial, sans-serif" font-size="9" font-weight="900" fill="#020617">&lt;/&gt; EDU</text>
    <rect x="14" y="170" width="54" height="7" rx="3.5" fill="#020617"/>
    <rect x="14" y="187" width="44" height="6" rx="3" fill="#94A3B8"/>
    <rect x="14" y="203" width="48" height="6" rx="3" fill="#CBD5E1"/>
    <rect x="14" y="224" width="38" height="6" rx="3" fill="#CBD5E1"/>
  </g>
  <defs>
    <linearGradient id="corner" x1="210" y1="24" x2="396" y2="210" gradientUnits="userSpaceOnUse">
      <stop stop-color="#38BDF8"/>
      <stop offset="1" stop-color="#7C3AED"/>
    </linearGradient>
  </defs>
</svg>
