<svg xmlns="http://www.w3.org/2000/svg" width="420" height="594" viewBox="0 0 420 594" fill="none">
  <rect width="420" height="594" rx="18" fill="#ffffff"/>
  <circle cx="398" cy="10" r="78" fill="#ff4ecd" opacity="0.14"/>
  <circle cx="-4" cy="585" r="88" fill="#7c3aed" opacity="0.13"/>
  <rect x="34" y="38" width="104" height="18" rx="9" fill="#fff0fb" stroke="#fbcfe8"/>
  <rect x="34" y="74" width="210" height="22" rx="6" fill="#1f1235"/>
  <rect x="34" y="104" width="160" height="12" rx="6" fill="#db2777"/>
  <rect x="34" y="132" width="220" height="7" rx="3.5" fill="#5b5268" opacity="0.55"/>
  <rect x="34" y="146" width="185" height="7" rx="3.5" fill="#5b5268" opacity="0.45"/>
  <rect x="300" y="58" width="78" height="78" rx="22" fill="url(#paint0_linear)" transform="rotate(3 300 58)"/>
  <rect x="308" y="66" width="62" height="62" rx="18" fill="#e9d5ff" transform="rotate(3 308 66)"/>
  <rect x="34" y="184" width="214" height="74" rx="22" fill="#faf7ff" stroke="#eadcff"/>
  <rect x="52" y="204" width="17" height="17" rx="5" fill="url(#paint1_linear)" transform="rotate(8 52 204)"/>
  <rect x="78" y="205" width="86" height="11" rx="5.5" fill="#1f1235"/>
  <rect x="52" y="230" width="164" height="6" rx="3" fill="#5b5268" opacity="0.45"/>
  <rect x="52" y="244" width="132" height="6" rx="3" fill="#5b5268" opacity="0.35"/>
  <rect x="34" y="288" width="214" height="86" rx="22" fill="#fffaf0" stroke="#fde68a"/>
  <rect x="52" y="308" width="120" height="10" rx="5" fill="#1f1235"/>
  <rect x="52" y="327" width="72" height="7" rx="3.5" fill="#db2777"/>
  <rect x="52" y="346" width="160" height="6" rx="3" fill="#5b5268" opacity="0.45"/>
  <rect x="52" y="360" width="135" height="6" rx="3" fill="#5b5268" opacity="0.35"/>
  <rect x="34" y="396" width="214" height="78" rx="22" fill="#ffffff" stroke="#eee7f8"/>
  <circle cx="220" cy="416" r="18" fill="#fce7f3"/>
  <rect x="52" y="416" width="112" height="10" rx="5" fill="#1f1235"/>
  <rect x="52" y="440" width="150" height="6" rx="3" fill="#5b5268" opacity="0.45"/>
  <rect x="52" y="454" width="122" height="6" rx="3" fill="#5b5268" opacity="0.35"/>
  <rect x="270" y="184" width="116" height="96" rx="24" fill="#faf7ff" stroke="#eadcff"/>
  <rect x="288" y="204" width="17" height="17" rx="5" fill="url(#paint2_linear)" transform="rotate(8 288 204)"/>
  <rect x="314" y="205" width="42" height="10" rx="5" fill="#1f1235"/>
  <rect x="288" y="235" width="54" height="18" rx="9" fill="#1f1235"/>
  <rect x="348" y="235" width="24" height="18" rx="9" fill="#1f1235"/>
  <rect x="288" y="258" width="66" height="18" rx="9" fill="#1f1235"/>
  <rect x="270" y="302" width="116" height="98" rx="24" fill="#fffaf0" stroke="#fde68a"/>
  <rect x="288" y="322" width="70" height="10" rx="5" fill="#1f1235"/>
  <rect x="288" y="350" width="78" height="7" rx="3.5" fill="#5b5268" opacity="0.5"/>
  <rect x="288" y="366" width="62" height="7" rx="3.5" fill="#5b5268" opacity="0.35"/>
  <rect x="270" y="422" width="116" height="82" rx="24" fill="#fff0fb" stroke="#fbcfe8"/>
  <rect x="288" y="442" width="70" height="10" rx="5" fill="#1f1235"/>
  <rect x="288" y="470" width="74" height="7" rx="3.5" fill="#5b5268" opacity="0.5"/>
  <rect x="288" y="486" width="58" height="7" rx="3.5" fill="#5b5268" opacity="0.35"/>
  <defs>
    <linearGradient id="paint0_linear" x1="300" y1="58" x2="378" y2="136" gradientUnits="userSpaceOnUse">
      <stop stop-color="#7c3aed"/>
      <stop offset="0.55" stop-color="#ff4ecd"/>
      <stop offset="1" stop-color="#facc15"/>
    </linearGradient>
    <linearGradient id="paint1_linear" x1="52" y1="204" x2="69" y2="221" gradientUnits="userSpaceOnUse">
      <stop stop-color="#7c3aed"/>
      <stop offset="1" stop-color="#ff4ecd"/>
    </linearGradient>
    <linearGradient id="paint2_linear" x1="288" y1="204" x2="305" y2="221" gradientUnits="userSpaceOnUse">
      <stop stop-color="#7c3aed"/>
      <stop offset="1" stop-color="#ff4ecd"/>
    </linearGradient>
  </defs>
</svg>
