<svg xmlns="http://www.w3.org/2000/svg" viewBox="0 0 320 452" fill="none">
  <rect width="320" height="452" rx="18" fill="#ffffff"/>
  <path d="M0 0h118v452H0z" fill="#7c3aed"/>
  <path d="M0 0h320v92H0z" fill="#06b6d4" opacity=".88"/>
  <circle cx="82" cy="82" r="42" fill="#fff" opacity=".92"/>
  <rect x="148" y="42" width="122" height="12" rx="6" fill="#fff"/>
  <rect x="148" y="64" width="88" height="8" rx="4" fill="#eef2ff"/>
  <rect x="28" y="158" width="62" height="7" rx="3.5" fill="#fff"/>
  <rect x="28" y="180" width="72" height="6" rx="3" fill="#ddd6fe"/>
  <rect x="28" y="196" width="52" height="6" rx="3" fill="#ddd6fe"/>
  <rect x="148" y="132" width="72" height="8" rx="4" fill="#7c3aed"/>
  <rect x="148" y="158" width="128" height="6" rx="3" fill="#cbd5e1"/>
  <rect x="148" y="174" width="104" height="6" rx="3" fill="#cbd5e1"/>
  <rect x="148" y="218" width="82" height="8" rx="4" fill="#06b6d4"/>
  <rect x="148" y="244" width="128" height="6" rx="3" fill="#cbd5e1"/>
  <rect x="148" y="260" width="114" height="6" rx="3" fill="#cbd5e1"/>
  <rect x="148" y="304" width="74" height="8" rx="4" fill="#7c3aed"/>
  <rect x="148" y="330" width="128" height="6" rx="3" fill="#cbd5e1"/>
  <rect x="148" y="346" width="98" height="6" rx="3" fill="#cbd5e1"/>
</svg>
