<svg width="420" height="560" viewBox="0 0 420 560" fill="none" xmlns="http://www.w3.org/2000/svg">
  <rect width="420" height="560" fill="#ffffff"/>
  <rect x="58" y="42" width="304" height="476" rx="2" fill="#ffffff" stroke="#e5e7eb"/>
  <circle cx="210" cy="92" r="28" fill="#f3f4f6" stroke="#d1d5db"/>
  <rect x="142" y="132" width="136" height="10" rx="5" fill="#111827"/>
  <rect x="116" y="154" width="188" height="6" rx="3" fill="#d1d5db"/>
  <rect x="92" y="184" width="236" height="2" rx="1" fill="#e5e7eb"/>
  <rect x="92" y="218" width="96" height="8" rx="4" fill="#7c3aed"/>
  <rect x="92" y="242" width="154" height="7" rx="3.5" fill="#111827"/>
  <rect x="92" y="260" width="178" height="5" rx="2.5" fill="#d1d5db"/>
  <rect x="92" y="274" width="162" height="5" rx="2.5" fill="#d1d5db"/>
  <rect x="92" y="298" width="96" height="8" rx="4" fill="#7c3aed"/>
  <rect x="92" y="322" width="170" height="7" rx="3.5" fill="#111827"/>
  <rect x="92" y="340" width="184" height="5" rx="2.5" fill="#d1d5db"/>
  <rect x="92" y="354" width="142" height="5" rx="2.5" fill="#d1d5db"/>
  <rect x="274" y="216" width="1" height="196" fill="#9ca3af"/>
  <rect x="296" y="218" width="54" height="8" rx="4" fill="#7c3aed"/>
  <rect x="296" y="242" width="42" height="7" rx="3.5" fill="#111827"/>
  <rect x="296" y="260" width="48" height="5" rx="2.5" fill="#d1d5db"/>
  <rect x="296" y="284" width="42" height="7" rx="3.5" fill="#111827"/>
  <rect x="296" y="302" width="54" height="5" rx="2.5" fill="#d1d5db"/>
  <rect x="296" y="332" width="46" height="8" rx="4" fill="#7c3aed"/>
  <rect x="296" y="356" width="36" height="14" rx="4" fill="#f3f4f6" stroke="#e5e7eb"/>
  <rect x="338" y="356" width="28" height="14" rx="4" fill="#f3f4f6" stroke="#e5e7eb"/>
</svg>
