<svg xmlns="http://www.w3.org/2000/svg" width="420" height="594" viewBox="0 0 420 594" fill="none">
  <rect width="420" height="594" fill="#ffffff"/>
  <path d="M0 0h420v150L0 205V0Z" fill="url(#g)"/>
  <circle cx="330" cy="72" r="42" fill="#ffffff" stroke="#ecfdf5" stroke-width="8"/>
  <circle cx="330" cy="72" r="28" fill="#d1fae5"/>
  <path d="M44 45h188v17H44z" fill="#ffffff"/>
  <path d="M44 75h142v9H44z" fill="#a7f3d0"/>
  <path d="M44 104h122v7H44zm0 18h88v7H44z" fill="#ecfdf5"/>
  <path d="M44 236h98v12H44z" fill="#059669"/>
  <path d="M44 265h215v6H44zm0 15h196v6H44zm0 15h170v6H44z" fill="#6b7280"/>
  <path d="M44 340h105v12H44z" fill="#059669"/>
  <path d="M52 376h4v82h-4z" fill="#d1fae5"/>
  <circle cx="54" cy="380" r="7" fill="#10b981"/>
  <circle cx="54" cy="446" r="7" fill="#6ee7b7"/>
  <path d="M74 370h153v10H74zm0 388h0z" fill="#111827"/>
  <path d="M74 390h120v7H74zm0 407h0z" fill="#059669"/>
  <path d="M74 408h168v5H74zm0 14h153v5H74zm0 14h132v5H74z" fill="#6b7280"/>
  <path d="M74 436h139v10H74z" fill="#111827"/>
  <path d="M74 456h112v7H74z" fill="#059669"/>
  <path d="M74 474h155v5H74zm0 14h126v5H74z" fill="#6b7280"/>
  <rect x="280" y="236" width="92" height="28" rx="14" fill="#ecfdf5" stroke="#a7f3d0"/>
  <rect x="280" y="278" width="84" height="28" rx="6" fill="#111827"/>
  <rect x="280" y="318" width="64" height="28" rx="6" fill="#ffffff" stroke="#e5e7eb"/>
  <rect x="280" y="372" width="80" height="8" rx="4" fill="#111827"/>
  <rect x="280" y="392" width="92" height="6" rx="3" fill="#e5e7eb"/>
  <rect x="280" y="392" width="72" height="6" rx="3" fill="#10b981"/>
  <rect x="280" y="414" width="92" height="6" rx="3" fill="#e5e7eb"/>
  <rect x="280" y="414" width="58" height="6" rx="3" fill="#10b981"/>
  <defs>
    <linearGradient id="g" x1="0" y1="0" x2="420" y2="205" gradientUnits="userSpaceOnUse">
      <stop stop-color="#10b981"/>
      <stop offset="1" stop-color="#059669"/>
    </linearGradient>
  </defs>
</svg>
