<svg xmlns="http://www.w3.org/2000/svg" width="900" height="1200" viewBox="0 0 900 1200" role="img" aria-label="Timeline CV template preview">
  <rect width="900" height="1200" fill="#f8fafc"/>
  <rect x="90" y="70" width="720" height="1060" rx="14" fill="#ffffff"/>
  <rect x="140" y="130" width="92" height="10" rx="5" fill="#10b981"/>
  <rect x="140" y="170" width="350" height="38" rx="4" fill="#111827"/>
  <rect x="140" y="222" width="280" height="16" rx="4" fill="#64748b"/>
  <rect x="590" y="168" width="160" height="12" rx="4" fill="#94a3b8"/>
  <rect x="620" y="190" width="130" height="12" rx="4" fill="#94a3b8"/>
  <rect x="548" y="212" width="202" height="12" rx="4" fill="#94a3b8"/>
  <line x1="140" y1="285" x2="760" y2="285" stroke="#e2e8f0" stroke-width="3"/>
  <g fill="#10b981">
    <rect x="140" y="340" width="86" height="13" rx="6"/>
    <rect x="140" y="515" width="96" height="13" rx="6"/>
    <rect x="140" y="690" width="68" height="13" rx="6"/>
  </g>
  <g stroke="#cbd5e1" stroke-width="3">
    <line x1="292" y1="340" x2="292" y2="785"/>
  </g>
  <g fill="#10b981" stroke="#ffffff" stroke-width="7">
    <circle cx="292" cy="350" r="12"/>
    <circle cx="292" cy="525" r="12"/>
    <circle cx="292" cy="700" r="12"/>
  </g>
  <g fill="#111827">
    <rect x="330" y="330" width="285" height="22" rx="4"/>
    <rect x="330" y="505" width="250" height="22" rx="4"/>
    <rect x="330" y="680" width="220" height="22" rx="4"/>
  </g>
  <g fill="#64748b">
    <rect x="330" y="365" width="180" height="14" rx="4"/>
    <rect x="330" y="540" width="190" height="14" rx="4"/>
    <rect x="330" y="715" width="155" height="14" rx="4"/>
  </g>
  <g fill="#cbd5e1">
    <rect x="330" y="405" width="390" height="11" rx="4"/>
    <rect x="330" y="428" width="350" height="11" rx="4"/>
    <rect x="330" y="451" width="310" height="11" rx="4"/>
    <rect x="330" y="580" width="365" height="11" rx="4"/>
    <rect x="330" y="603" width="330" height="11" rx="4"/>
    <rect x="330" y="755" width="360" height="11" rx="4"/>
    <rect x="330" y="778" width="290" height="11" rx="4"/>
  </g>
  <rect x="140" y="865" width="90" height="13" rx="6" fill="#8b5cf6"/>
  <line x1="250" y1="871" x2="760" y2="871" stroke="#e2e8f0" stroke-width="2"/>
  <g fill="#f1f5f9" stroke="#e2e8f0">
    <rect x="140" y="915" width="105" height="30" rx="8"/>
    <rect x="260" y="915" width="92" height="30" rx="8"/>
    <rect x="367" y="915" width="118" height="30" rx="8"/>
    <rect x="500" y="915" width="86" height="30" rx="8"/>
    <rect x="601" y="915" width="104" height="30" rx="8"/>
  </g>
  <g fill="#64748b">
    <rect x="160" y="926" width="65" height="8" rx="4"/>
    <rect x="280" y="926" width="52" height="8" rx="4"/>
    <rect x="387" y="926" width="78" height="8" rx="4"/>
    <rect x="520" y="926" width="46" height="8" rx="4"/>
    <rect x="621" y="926" width="64" height="8" rx="4"/>
  </g>
</svg>
