<svg xmlns="http://www.w3.org/2000/svg" width="420" height="594" viewBox="0 0 420 594" fill="none">
  <rect width="420" height="594" fill="#EAF0F7"/>
  <rect x="34" y="24" width="352" height="546" rx="6" fill="white"/>
  <rect x="34" y="24" width="352" height="96" rx="6" fill="#0F3D75"/>
  <rect x="62" y="52" width="170" height="14" rx="3" fill="white"/>
  <rect x="62" y="75" width="120" height="8" rx="3" fill="#BFDBFE"/>
  <rect x="62" y="95" width="195" height="5" rx="2.5" fill="#E0ECFF"/>
  <rect x="294" y="48" width="58" height="58" rx="10" fill="#DBEAFE" fill-opacity=".95"/>
  <rect x="62" y="154" width="90" height="8" rx="2" fill="#0F3D75"/>
  <rect x="62" y="170" width="90" height="2" rx="1" fill="#93C5FD"/>
  <rect x="62" y="188" width="78" height="7" rx="3" fill="#EFF6FF"/>
  <rect x="62" y="204" width="96" height="7" rx="3" fill="#EFF6FF"/>
  <rect x="62" y="220" width="70" height="7" rx="3" fill="#EFF6FF"/>
  <rect x="62" y="266" width="92" height="8" rx="2" fill="#0F3D75"/>
  <rect x="62" y="282" width="90" height="2" rx="1" fill="#93C5FD"/>
  <rect x="62" y="300" width="44" height="16" rx="5" fill="#EFF6FF" stroke="#BFDBFE"/>
  <rect x="112" y="300" width="56" height="16" rx="5" fill="#EFF6FF" stroke="#BFDBFE"/>
  <rect x="62" y="323" width="48" height="16" rx="5" fill="#EFF6FF" stroke="#BFDBFE"/>
  <rect x="195" y="154" width="130" height="8" rx="2" fill="#0F3D75"/>
  <rect x="195" y="170" width="130" height="2" rx="1" fill="#93C5FD"/>
  <rect x="195" y="188" width="148" height="6" rx="3" fill="#CBD5E1"/>
  <rect x="195" y="202" width="128" height="6" rx="3" fill="#CBD5E1"/>
  <rect x="195" y="216" width="158" height="6" rx="3" fill="#CBD5E1"/>
  <rect x="195" y="258" width="145" height="8" rx="2" fill="#0F3D75"/>
  <rect x="195" y="274" width="145" height="2" rx="1" fill="#93C5FD"/>
  <rect x="195" y="294" width="102" height="7" rx="3" fill="#102033"/>
  <rect x="321" y="294" width="40" height="7" rx="3" fill="#1D4ED8"/>
  <rect x="195" y="310" width="78" height="6" rx="3" fill="#64748B"/>
  <rect x="195" y="328" width="154" height="6" rx="3" fill="#CBD5E1"/>
  <rect x="195" y="342" width="134" height="6" rx="3" fill="#CBD5E1"/>
  <rect x="195" y="374" width="98" height="7" rx="3" fill="#102033"/>
  <rect x="321" y="374" width="40" height="7" rx="3" fill="#1D4ED8"/>
  <rect x="195" y="390" width="86" height="6" rx="3" fill="#64748B"/>
  <rect x="195" y="408" width="158" height="6" rx="3" fill="#CBD5E1"/>
  <rect x="195" y="422" width="116" height="6" rx="3" fill="#CBD5E1"/>
  <rect x="195" y="470" width="78" height="8" rx="2" fill="#0F3D75"/>
  <rect x="195" y="486" width="78" height="2" rx="1" fill="#93C5FD"/>
  <rect x="195" y="504" width="150" height="42" rx="8" fill="#F8FBFF" stroke="#DBEAFE"/>
  <rect x="195" y="504" width="4" height="42" rx="2" fill="#2563EB"/>
  <rect x="210" y="518" width="92" height="7" rx="3" fill="#102033"/>
  <rect x="210" y="533" width="112" height="6" rx="3" fill="#CBD5E1"/>
  <line x1="178" y1="144" x2="178" y2="540" stroke="#DBEAFE"/>
</svg>
