<svg xmlns="http://www.w3.org/2000/svg" width="420" height="594" viewBox="0 0 420 594" fill="none">
  <rect width="420" height="594" rx="24" fill="#F8FAFC"/>
  <rect width="420" height="146" fill="url(#topDark)"/>
  <circle cx="384" cy="-4" r="88" fill="#2DD4BF" opacity=".16"/>

  <text x="42" y="56" fill="#2DD4BF" font-family="Arial, sans-serif" font-size="10" font-weight="800" letter-spacing="2.4">MODULAR RESUME</text>
  <rect x="42" y="78" width="150" height="18" rx="9" fill="#FFFFFF"/>
  <rect x="42" y="112" width="112" height="8" rx="4" fill="#CBD5E1"/>
  <rect x="316" y="52" width="56" height="56" rx="22" fill="#475569" stroke="#FFFFFF" stroke-opacity=".18" stroke-width="4"/>
  <rect x="308" y="60" width="56" height="56" rx="22" fill="#2DD4BF" opacity=".45"/>
  <circle cx="344" cy="73" r="10" fill="#111827" opacity=".45"/>
  <path d="M325 101c7-15 31-15 38 0" stroke="#111827" stroke-width="5" stroke-linecap="round" opacity=".45"/>

  <rect x="28" y="168" width="364" height="52" rx="22" fill="#FFFFFF"/>
  <line x1="149" y1="168" x2="149" y2="220" stroke="#E2E8F0"/>
  <line x1="270" y1="168" x2="270" y2="220" stroke="#E2E8F0"/>
  <rect x="48" y="186" width="38" height="6" rx="3" fill="#2DD4BF"/>
  <rect x="48" y="200" width="76" height="7" rx="3.5" fill="#334155"/>
  <rect x="169" y="186" width="38" height="6" rx="3" fill="#2DD4BF"/>
  <rect x="169" y="200" width="76" height="7" rx="3.5" fill="#334155"/>
  <rect x="290" y="186" width="50" height="6" rx="3" fill="#2DD4BF"/>
  <rect x="290" y="200" width="76" height="7" rx="3.5" fill="#334155"/>

  <rect x="28" y="250" width="118" height="130" rx="22" fill="#0F172A"/>
  <circle cx="54" cy="280" r="5" fill="#2DD4BF"/>
  <circle cx="64" cy="280" r="5" fill="#F59E0B"/>
  <rect x="76" y="276" width="48" height="8" rx="4" fill="#FFFFFF"/>
  <rect x="50" y="310" width="70" height="7" rx="3.5" fill="#FFFFFF" opacity=".15"/>
  <rect x="50" y="310" width="58" height="7" rx="3.5" fill="url(#bar)"/>
  <rect x="50" y="338" width="70" height="7" rx="3.5" fill="#FFFFFF" opacity=".15"/>
  <rect x="50" y="338" width="64" height="7" rx="3.5" fill="url(#bar)"/>

  <rect x="162" y="250" width="230" height="74" rx="22" fill="#FFFFFF" stroke="#E2E8F0"/>
  <circle cx="188" cy="278" r="5" fill="#2DD4BF"/>
  <circle cx="198" cy="278" r="5" fill="#F59E0B"/>
  <rect x="212" y="274" width="58" height="8" rx="4" fill="#0F172A"/>
  <rect x="188" y="300" width="158" height="6" rx="3" fill="#475569" opacity=".55"/>
  <rect x="188" y="314" width="124" height="6" rx="3" fill="#475569" opacity=".38"/>

  <rect x="162" y="346" width="230" height="106" rx="22" fill="#FFFFFF" stroke="#E2E8F0"/>
  <circle cx="188" cy="374" r="5" fill="#2DD4BF"/>
  <circle cx="198" cy="374" r="5" fill="#F59E0B"/>
  <rect x="212" y="370" width="112" height="8" rx="4" fill="#0F172A"/>
  <rect x="188" y="402" width="176" height="40" rx="18" fill="#F8FAFC" stroke="#E2E8F0"/>
  <rect x="208" y="416" width="78" height="8" rx="4" fill="#0F172A"/>
  <rect x="208" y="434" width="92" height="6" rx="3" fill="#2DD4BF"/>

  <rect x="28" y="482" width="112" height="74" rx="22" fill="#FFFFFF" stroke="#E2E8F0"/>
  <rect x="154" y="482" width="112" height="74" rx="22" fill="#FFFFFF" stroke="#E2E8F0"/>
  <rect x="280" y="482" width="112" height="74" rx="22" fill="#FFFFFF" stroke="#E2E8F0"/>
  <circle cx="54" cy="508" r="5" fill="#2DD4BF"/>
  <circle cx="64" cy="508" r="5" fill="#F59E0B"/>
  <rect x="78" y="504" width="46" height="8" rx="4" fill="#0F172A"/>
  <rect x="174" y="504" width="58" height="8" rx="4" fill="#0F172A"/>
  <rect x="300" y="504" width="64" height="8" rx="4" fill="#0F172A"/>

  <text x="210" y="578" text-anchor="middle" fill="#111827" font-family="Arial, sans-serif" font-size="21" font-weight="800">Modular No Gap</text>

  <defs>
    <linearGradient id="topDark" x1="0" y1="0" x2="420" y2="146" gradientUnits="userSpaceOnUse">
      <stop stop-color="#111827"/>
      <stop offset="1" stop-color="#334155"/>
    </linearGradient>
    <linearGradient id="bar" x1="50" y1="310" x2="120" y2="310" gradientUnits="userSpaceOnUse">
      <stop stop-color="#2DD4BF"/>
      <stop offset="1" stop-color="#F59E0B"/>
    </linearGradient>
  </defs>
</svg>
