<svg xmlns="http://www.w3.org/2000/svg" width="840" height="1188" viewBox="0 0 840 1188" role="img" aria-label="ATS timeline CV template thumbnail">
  <rect width="840" height="1188" fill="#f1f3f6"/>
  <rect x="70" y="56" width="700" height="1076" rx="6" fill="#ffffff"/>
  <rect x="138" y="126" width="320" height="34" rx="3" fill="#111827"/>
  <rect x="138" y="176" width="218" height="13" rx="2" fill="#2563eb"/>
  <g fill="#4b5563">
    <rect x="138" y="214" width="142" height="11" rx="2"/>
    <rect x="310" y="214" width="118" height="11" rx="2"/>
    <rect x="458" y="214" width="178" height="11" rx="2"/>
  </g>
  <rect x="138" y="260" width="564" height="5" fill="#2563eb"/>
  <g fill="#111827">
    <rect x="138" y="326" width="190" height="16" rx="2"/>
    <rect x="138" y="466" width="172" height="16" rx="2"/>
    <rect x="138" y="778" width="162" height="16" rx="2"/>
    <rect x="138" y="930" width="86" height="16" rx="2"/>
  </g>
  <g fill="#d1d5db">
    <rect x="138" y="356" width="564" height="2"/>
    <rect x="138" y="496" width="564" height="2"/>
    <rect x="138" y="808" width="564" height="2"/>
    <rect x="138" y="960" width="564" height="2"/>
  </g>
  <g fill="#374151">
    <rect x="138" y="382" width="510" height="10" rx="2"/>
    <rect x="138" y="406" width="468" height="10" rx="2"/>
    <rect x="138" y="430" width="534" height="10" rx="2"/>
  </g>
  <g fill="#374151">
    <rect x="138" y="520" width="70" height="10" rx="2"/>
    <rect x="238" y="520" width="100" height="10" rx="2"/>
    <rect x="368" y="520" width="88" height="10" rx="2"/>
    <rect x="486" y="520" width="118" height="10" rx="2"/>
  </g>
  <rect x="138" y="590" width="2" height="146" fill="#cbd5e1"/>
  <rect x="138" y="842" width="2" height="52" fill="#cbd5e1"/>
  <g fill="#2563eb" stroke="#ffffff" stroke-width="5">
    <circle cx="139" cy="602" r="9"/>
    <circle cx="139" cy="708" r="9"/>
    <circle cx="139" cy="854" r="9"/>
  </g>
  <g fill="#111827">
    <rect x="166" y="592" width="142" height="13" rx="2"/>
    <rect x="166" y="698" width="126" height="13" rx="2"/>
    <rect x="166" y="844" width="198" height="13" rx="2"/>
  </g>
  <g fill="#2563eb">
    <rect x="166" y="614" width="124" height="10" rx="2"/>
    <rect x="166" y="720" width="112" height="10" rx="2"/>
    <rect x="166" y="866" width="170" height="10" rx="2"/>
  </g>
  <g fill="#64748b">
    <rect x="614" y="592" width="88" height="10" rx="2"/>
    <rect x="614" y="698" width="88" height="10" rx="2"/>
    <rect x="614" y="844" width="88" height="10" rx="2"/>
  </g>
  <g fill="#475467">
    <rect x="166" y="648" width="438" height="9" rx="2"/>
    <rect x="166" y="672" width="384" height="9" rx="2"/>
    <rect x="166" y="754" width="410" height="9" rx="2"/>
    <rect x="166" y="988" width="248" height="9" rx="2"/>
    <rect x="444" y="988" width="210" height="9" rx="2"/>
  </g>
</svg>
