<svg xmlns="http://www.w3.org/2000/svg" width="840" height="1188" viewBox="0 0 840 1188" role="img" aria-label="ATS two column compact CV template thumbnail">
  <rect width="840" height="1188" fill="#f2f4f7"/>
  <rect x="70" y="56" width="700" height="1076" rx="6" fill="#ffffff"/>
  <rect x="134" y="124" width="294" height="34" rx="3" fill="#111827"/>
  <rect x="134" y="174" width="178" height="13" rx="2" fill="#0f766e"/>
  <g fill="#4b5563">
    <rect x="134" y="210" width="132" height="11" rx="2"/>
    <rect x="296" y="210" width="118" height="11" rx="2"/>
    <rect x="444" y="210" width="166" height="11" rx="2"/>
  </g>
  <rect x="134" y="256" width="572" height="5" fill="#0f766e"/>
  <g fill="#111827">
    <rect x="134" y="320" width="190" height="16" rx="2"/>
    <rect x="134" y="460" width="214" height="16" rx="2"/>
    <rect x="134" y="754" width="82" height="16" rx="2"/>
    <rect x="528" y="320" width="96" height="16" rx="2"/>
    <rect x="528" y="518" width="58" height="16" rx="2"/>
    <rect x="528" y="674" width="92" height="16" rx="2"/>
  </g>
  <g fill="#d1d5db">
    <rect x="134" y="350" width="338" height="2"/>
    <rect x="134" y="490" width="338" height="2"/>
    <rect x="134" y="784" width="338" height="2"/>
    <rect x="528" y="350" width="178" height="2"/>
    <rect x="528" y="548" width="178" height="2"/>
    <rect x="528" y="704" width="178" height="2"/>
  </g>
  <g fill="#374151">
    <rect x="134" y="376" width="318" height="10" rx="2"/>
    <rect x="134" y="400" width="284" height="10" rx="2"/>
    <rect x="134" y="424" width="332" height="10" rx="2"/>
  </g>
  <g fill="#111827">
    <rect x="134" y="520" width="148" height="13" rx="2"/>
    <rect x="134" y="636" width="128" height="13" rx="2"/>
    <rect x="134" y="814" width="192" height="13" rx="2"/>
  </g>
  <g fill="#0f766e">
    <rect x="134" y="542" width="132" height="10" rx="2"/>
    <rect x="134" y="658" width="112" height="10" rx="2"/>
    <rect x="134" y="836" width="128" height="10" rx="2"/>
  </g>
  <g fill="#64748b">
    <rect x="384" y="520" width="88" height="10" rx="2"/>
    <rect x="384" y="636" width="88" height="10" rx="2"/>
    <rect x="384" y="814" width="88" height="10" rx="2"/>
  </g>
  <g fill="#475467">
    <rect x="154" y="574" width="282" height="9" rx="2"/>
    <rect x="154" y="598" width="244" height="9" rx="2"/>
    <rect x="154" y="690" width="268" height="9" rx="2"/>
    <rect x="154" y="714" width="220" height="9" rx="2"/>
    <rect x="134" y="868" width="298" height="9" rx="2"/>
  </g>
  <g fill="#f9fafb" stroke="#d1d5db" stroke-width="1">
    <rect x="528" y="376" width="74" height="22" rx="2"/>
    <rect x="610" y="376" width="74" height="22" rx="2"/>
    <rect x="528" y="410" width="92" height="22" rx="2"/>
    <rect x="628" y="410" width="78" height="22" rx="2"/>
    <rect x="528" y="444" width="104" height="22" rx="2"/>
    <rect x="528" y="478" width="132" height="22" rx="2"/>
  </g>
  <g fill="#111827">
    <rect x="528" y="574" width="126" height="12" rx="2"/>
    <rect x="528" y="624" width="112" height="12" rx="2"/>
    <rect x="528" y="730" width="80" height="12" rx="2"/>
    <rect x="528" y="780" width="92" height="12" rx="2"/>
  </g>
  <g fill="#4b5563">
    <rect x="528" y="594" width="146" height="9" rx="2"/>
    <rect x="528" y="644" width="132" height="9" rx="2"/>
    <rect x="528" y="750" width="104" height="9" rx="2"/>
    <rect x="528" y="800" width="118" height="9" rx="2"/>
  </g>
</svg>
