<svg xmlns="http://www.w3.org/2000/svg" width="420" height="594" viewBox="0 0 420 594">
  <rect width="420" height="594" fill="#f3f4f6"/>
  <rect x="30" y="20" width="360" height="554" rx="4" fill="#ffffff"/>
  <rect x="30" y="20" width="360" height="82" fill="#ffffff"/>
  <rect x="30" y="102" width="360" height="8" fill="#8b5cf6"/>
  <rect x="66" y="50" width="112" height="13" rx="3" fill="#111827"/>
  <rect x="66" y="70" width="82" height="8" rx="4" fill="#8b5cf6"/>
  <rect x="245" y="42" width="62" height="62" rx="10" fill="#e5e7eb" transform="rotate(3 276 73)"/>
  <rect x="252" y="49" width="48" height="48" rx="8" fill="#c4b5fd" transform="rotate(3 276 73)"/>
  <rect x="66" y="142" width="70" height="17" rx="3" fill="#8b5cf6"/>
  <rect x="66" y="174" width="192" height="7" rx="3.5" fill="#d1d5db"/>
  <rect x="66" y="190" width="162" height="7" rx="3.5" fill="#e5e7eb"/>
  <rect x="66" y="228" width="86" height="17" rx="3" fill="#8b5cf6"/>
  <line x1="76" y1="270" x2="76" y2="390" stroke="#e5e7eb" stroke-width="3"/>
  <circle cx="76" cy="276" r="6" fill="#8b5cf6"/>
  <rect x="92" y="268" width="120" height="9" rx="4.5" fill="#111827"/>
  <rect x="92" y="286" width="170" height="7" rx="3.5" fill="#d1d5db"/>
  <rect x="92" y="301" width="145" height="7" rx="3.5" fill="#e5e7eb"/>
  <circle cx="76" cy="348" r="6" fill="#8b5cf6"/>
  <rect x="92" y="340" width="132" height="9" rx="4.5" fill="#111827"/>
  <rect x="92" y="358" width="154" height="7" rx="3.5" fill="#d1d5db"/>
  <rect x="92" y="373" width="132" height="7" rx="3.5" fill="#e5e7eb"/>
  <line x1="280" y1="142" x2="280" y2="494" stroke="#e5e7eb" stroke-width="2"/>
  <rect x="300" y="142" width="70" height="17" rx="3" fill="#8b5cf6"/>
  <rect x="300" y="176" width="58" height="8" rx="4" fill="#111827"/>
  <rect x="300" y="193" width="70" height="6" rx="3" fill="#d1d5db"/>
  <rect x="300" y="230" width="70" height="17" rx="3" fill="#8b5cf6"/>
  <rect x="300" y="266" width="70" height="6" rx="3" fill="#e5e7eb"/>
  <rect x="300" y="266" width="62" height="6" rx="3" fill="#8b5cf6"/>
  <rect x="300" y="290" width="70" height="6" rx="3" fill="#e5e7eb"/>
  <rect x="300" y="290" width="52" height="6" rx="3" fill="#8b5cf6"/>
  <rect x="300" y="328" width="70" height="17" rx="3" fill="#8b5cf6"/>
  <rect x="300" y="362" width="70" height="7" rx="3.5" fill="#d1d5db"/>
  <rect x="300" y="380" width="54" height="7" rx="3.5" fill="#d1d5db"/>
</svg>
